{
  "source": "C:\\Users\\Peter\\Desktop\\stuff\\MIUN\\quantitative_research\\video_compression\\videos\\BVI-HD\\BVI-HD_CDVL_videos\\ORIG\\Music_1920x1080_30fps.mp4",
  "output": "C:\\Users\\Peter\\Desktop\\stuff\\MIUN\\quantitative_research\\video_compression\\compressed_videos\\BVI-HD\\hevc\\1\\Music_1920x1080_30fps_hevc.mp4",
  "codec": "hevc",
  "ok": "Input #0, mov,mp4,m4a,3gp,3g2,mj2, from 'C:\\Users\\Peter\\Desktop\\stuff\\MIUN\\quantitative_research\\video_compression\\videos\\BVI-HD\\BVI-HD_CDVL_videos\\ORIG\\Music_1920x1080_30fps.mp4':\n  Metadata:\n    major_brand     : isom\n    minor_version   : 512\n    compatible_brands: isomiso2avc1mp41\n    encoder         : Lavf54.28.101\n  Duration: 00:00:05.00, start: 0.000000, bitrate: 192710 kb/s\n  Stream #0:0[0x1](und): Video: h264 (High 4:4:4 Predictive) (avc1 / 0x31637661), yuv420p(progressive), 1920x1080, 192707 kb/s, 30 fps, 30 tbr, 30 tbn (default)\n    Metadata:\n      handler_name    : VideoHandler\n      vendor_id       : [0][0][0][0]\n[out#0/mp4 @ 0000020b77233c80] Codec AVOption b:a (set bitrate (in bits/s)) has not been used for any stream. The most likely reason is either wrong type (e.g. a video option with no video streams) or that it is a private option of some decoder which was not actually used for any stream.\nStream mapping:\n  Stream #0:0 -> #0:0 (h264 (native) -> hevc (libx265))\nPress [q] to stop, [?] for help\n[libx265 @ 0000020b76e40140] Unknown option: \"aq-mode.\nx265 [info]: HEVC encoder version 4.1+190-8f11c33ac\nx265 [info]: build info [Windows][GCC 15.1.0][64 bit] 10bit\nx265 [info]: using cpu capabilities: MMX2 SSE2Fast LZCNT SSSE3 SSE4.2 AVX FMA3 BMI2 AVX2\nx265 [info]: Main 10 profile, Level-4 (Main tier)\nx265 [info]: Thread pool created using 12 threads\nx265 [info]: Slices                              : 1\nx265 [info]: frame threads / pool features       : 3 / wpp(17 rows)\nx265 [info]: Coding QT: max CU size, min CU size : 64 / 8\nx265 [info]: Residual QT: max TU size, max depth : 32 / 1 inter / 1 intra\nx265 [info]: ME / range / subpel / merge         : star / 57 / 3 / 3\nx265 [info]: Keyframe min / max / scenecut / bias  : 25 / 250 / 40 / 5.00 \nx265 [info]: Lookahead / bframes / badapt        : 25 / 4 / 2\nx265 [info]: b-pyramid / weightp / weightb       : 1 / 1 / 0\nx265 [info]: References / ref-limit  cu / depth  : 4 / on / on\nx265 [info]: AQ: mode / str / qg-size / cu-tree  : 2 / 1.0 / 32 / 1\nx265 [info]: Rate Control / qCompress            : ABR-1000 kbps / 0.60\nx265 [info]: VBV/HRD buffer / max-rate / init    : 1000 / 1000 / 0.750\nx265 [info]: tools: rect limit-modes rd=4 psy-rd=2.00 rdoq=2 psy-rdoq=1.00\nx265 [info]: tools: rskip mode=1 signhide tmvp strong-intra-smoothing lslices=4\nx265 [info]: tools: deblock sao dhdr10-info\nOutput #0, mp4, to 'C:\\Users\\Peter\\Desktop\\stuff\\MIUN\\quantitative_research\\video_compression\\compressed_videos\\BVI-HD\\hevc\\1\\Music_1920x1080_30fps_hevc.mp4':\n  Metadata:\n    major_brand     : isom\n    minor_version   : 512\n    compatible_brands: isomiso2avc1mp41\n    encoder         : Lavf62.3.100\n  Stream #0:0(und): Video: hevc (hev1 / 0x31766568), yuv420p10le(tv, progressive), 1920x1080, q=2-31, 1000 kb/s, 30 fps, 15360 tbn (default)\n    Metadata:\n      encoder         : Lavc62.11.100 libx265\n      handler_name    : VideoHandler\n      vendor_id       : [0][0][0][0]\n    Side data:\n      cpb: bitrate max/min/avg: 1000000/0/1000000 buffer size: 1000000 vbv_delay: N/A\nframe=    0 fps=0.0 q=0.0 size=       0KiB time=N/A bitrate=N/A speed=N/A elapsed=0:00:00.53    \nframe=    0 fps=0.0 q=0.0 size=       0KiB time=N/A bitrate=N/A speed=N/A elapsed=0:00:01.19    \nframe=    0 fps=0.0 q=0.0 size=       0KiB time=N/A bitrate=N/A speed=N/A elapsed=0:00:01.71    \nframe=    0 fps=0.0 q=0.0 size=       0KiB time=N/A bitrate=N/A speed=N/A elapsed=0:00:02.26    \nframe=    0 fps=0.0 q=0.0 size=       0KiB time=N/A bitrate=N/A speed=N/A elapsed=0:00:02.80    \nframe=    0 fps=0.0 q=0.0 size=       0KiB time=N/A bitrate=N/A speed=N/A elapsed=0:00:03.33    \nframe=    0 fps=0.0 q=0.0 size=       0KiB time=N/A bitrate=N/A speed=N/A elapsed=0:00:03.85    \nframe=    0 fps=0.0 q=0.0 size=       0KiB time=N/A bitrate=N/A speed=N/A elapsed=0:00:04.40    \nframe=    0 fps=0.0 q=0.0 size=       0KiB time=N/A bitrate=N/A speed=N/A elapsed=0:00:04.94    \nframe=    0 fps=0.0 q=0.0 size=       0KiB time=N/A bitrate=N/A speed=N/A elapsed=0:00:05.47    \nframe=    0 fps=0.0 q=0.0 size=       0KiB time=N/A bitrate=N/A speed=N/A elapsed=0:00:05.99    \nframe=    0 fps=0.0 q=0.0 size=       0KiB time=N/A bitrate=N/A speed=N/A elapsed=0:00:06.50    \nframe=    0 fps=0.0 q=0.0 size=       0KiB time=N/A bitrate=N/A speed=N/A elapsed=0:00:07.02    \nframe=    1 fps=0.1 q=44.9 size=       0KiB time=-00:00:00.03 bitrate=N/A speed=N/A elapsed=0:00:07.55    \nframe=    1 fps=0.1 q=44.9 size=       0KiB time=-00:00:00.03 bitrate=N/A speed=N/A elapsed=0:00:08.08    \nframe=    1 fps=0.1 q=44.9 size=       0KiB time=-00:00:00.03 bitrate=N/A speed=N/A elapsed=0:00:08.60    \nframe=    1 fps=0.1 q=44.9 size=       0KiB time=-00:00:00.03 bitrate=N/A speed=N/A elapsed=0:00:09.12    \nframe=    1 fps=0.1 q=44.9 size=       0KiB time=-00:00:00.03 bitrate=N/A speed=N/A elapsed=0:00:09.62    \nframe=    1 fps=0.1 q=44.9 size=       0KiB time=-00:00:00.03 bitrate=N/A speed=N/A elapsed=0:00:10.15    \nframe=    2 fps=0.2 q=46.0 size=       0KiB time=-00:00:00.03 bitrate=N/A speed=N/A elapsed=0:00:10.69    \nframe=    2 fps=0.2 q=46.0 size=       0KiB time=00:00:00.00 bitrate=N/A speed=   0x elapsed=0:00:11.23    \nframe=    2 fps=0.2 q=46.0 size=       0KiB time=00:00:00.00 bitrate=N/A speed=   0x elapsed=0:00:11.75    \nframe=    3 fps=0.2 q=48.1 size=       0KiB time=00:00:00.03 bitrate=  10.6kbits/s speed=0.00272x elapsed=0:00:12.27    \nframe=    3 fps=0.2 q=48.1 size=       0KiB time=00:00:00.03 bitrate=  10.6kbits/s speed=0.0026x elapsed=0:00:12.80    \nframe=    3 fps=0.2 q=48.1 size=       0KiB time=00:00:00.03 bitrate=  10.6kbits/s speed=0.0025x elapsed=0:00:13.33    \nframe=    3 fps=0.2 q=48.1 size=       0KiB time=00:00:00.03 bitrate=  10.6kbits/s speed=0.00241x elapsed=0:00:13.84    \nframe=    3 fps=0.2 q=48.1 size=       0KiB time=00:00:00.03 bitrate=  10.6kbits/s speed=0.00232x elapsed=0:00:14.37    \nframe=    3 fps=0.2 q=48.1 size=       0KiB time=00:00:00.03 bitrate=  10.6kbits/s speed=0.00224x elapsed=0:00:14.87    \nframe=    4 fps=0.3 q=42.7 size=       0KiB time=00:00:00.06 bitrate=   5.3kbits/s speed=0.00432x elapsed=0:00:15.41    \nframe=    4 fps=0.3 q=42.7 size=       0KiB time=00:00:00.06 bitrate=   5.3kbits/s speed=0.00417x elapsed=0:00:15.98    \nframe=    4 fps=0.2 q=42.7 size=       0KiB time=00:00:00.06 bitrate=   5.3kbits/s speed=0.00404x elapsed=0:00:16.51    \nframe=    5 fps=0.3 q=45.3 size=       0KiB time=00:00:00.10 bitrate=   3.5kbits/s speed=0.00587x elapsed=0:00:17.02    \nframe=    5 fps=0.3 q=45.3 size=       0KiB time=00:00:00.10 bitrate=   3.5kbits/s speed=0.0057x elapsed=0:00:17.53    \nframe=    5 fps=0.3 q=45.3 size=       0KiB time=00:00:00.10 bitrate=   3.5kbits/s speed=0.00554x elapsed=0:00:18.05    \nframe=    5 fps=0.3 q=45.3 size=       0KiB time=00:00:00.10 bitrate=   3.5kbits/s speed=0.00538x elapsed=0:00:18.58    \nframe=    5 fps=0.3 q=45.3 size=       0KiB time=00:00:00.10 bitrate=   3.5kbits/s speed=0.00524x elapsed=0:00:19.09    \nframe=    5 fps=0.3 q=45.3 size=       0KiB time=00:00:00.10 bitrate=   3.5kbits/s speed=0.0051x elapsed=0:00:19.62    \nframe=    6 fps=0.3 q=41.1 size=       0KiB time=00:00:00.13 bitrate=   2.6kbits/s speed=0.00662x elapsed=0:00:20.13    \nframe=    6 fps=0.3 q=41.1 size=       0KiB time=00:00:00.13 bitrate=   2.6kbits/s speed=0.00646x elapsed=0:00:20.64    \nframe=    6 fps=0.3 q=41.1 size=       0KiB time=00:00:00.13 bitrate=   2.6kbits/s speed=0.0063x elapsed=0:00:21.15    \nframe=    7 fps=0.3 q=43.2 size=       0KiB time=00:00:00.16 bitrate=   2.1kbits/s speed=0.00769x elapsed=0:00:21.68    \nframe=    7 fps=0.3 q=43.2 size=       0KiB time=00:00:00.16 bitrate=   2.1kbits/s speed=0.00751x elapsed=0:00:22.18    \nframe=    7 fps=0.3 q=43.2 size=       0KiB time=00:00:00.16 bitrate=   2.1kbits/s speed=0.00734x elapsed=0:00:22.70    \nframe=    8 fps=0.3 q=40.8 size=       0KiB time=00:00:00.20 bitrate=   1.8kbits/s speed=0.00861x elapsed=0:00:23.22    \nframe=    8 fps=0.3 q=40.8 size=       0KiB time=00:00:00.20 bitrate=   1.8kbits/s speed=0.00842x elapsed=0:00:23.74    \nframe=    8 fps=0.3 q=40.8 size=       0KiB time=00:00:00.20 bitrate=   1.8kbits/s speed=0.00824x elapsed=0:00:24.27    \nframe=    8 fps=0.3 q=40.8 size=       0KiB time=00:00:00.20 bitrate=   1.8kbits/s speed=0.00807x elapsed=0:00:24.79    \nframe=    9 fps=0.4 q=42.2 size=       0KiB time=00:00:00.23 bitrate=   1.5kbits/s speed=0.00922x elapsed=0:00:25.30    \nframe=   10 fps=0.4 q=43.3 size=       0KiB time=00:00:00.26 bitrate=   1.3kbits/s speed=0.0103x elapsed=0:00:25.81    \nframe=   10 fps=0.4 q=43.3 size=       0KiB time=00:00:00.26 bitrate=   1.3kbits/s speed=0.0101x elapsed=0:00:26.34    \nframe=   10 fps=0.4 q=43.3 size=       0KiB time=00:00:00.26 bitrate=   1.3kbits/s speed=0.00991x elapsed=0:00:26.89    \nframe=   10 fps=0.4 q=43.3 size=       0KiB time=00:00:00.26 bitrate=   1.3kbits/s speed=0.00972x elapsed=0:00:27.43    \nframe=   11 fps=0.4 q=40.7 size=       0KiB time=00:00:00.30 bitrate=   1.2kbits/s speed=0.0107x elapsed=0:00:27.95    \nframe=   11 fps=0.4 q=40.7 size=       0KiB time=00:00:00.30 bitrate=   1.2kbits/s speed=0.0105x elapsed=0:00:28.48    \nframe=   12 fps=0.4 q=41.8 size=       0KiB time=00:00:00.33 bitrate=   1.1kbits/s speed=0.0115x elapsed=0:00:28.99    \nframe=   12 fps=0.4 q=41.8 size=       0KiB time=00:00:00.33 bitrate=   1.1kbits/s speed=0.0113x elapsed=0:00:29.54    \nframe=   12 fps=0.4 q=41.8 size=       0KiB time=00:00:00.33 bitrate=   1.1kbits/s speed=0.0111x elapsed=0:00:30.04    \nframe=   12 fps=0.4 q=41.8 size=       0KiB time=00:00:00.33 bitrate=   1.1kbits/s speed=0.0109x elapsed=0:00:30.57    \nframe=   12 fps=0.4 q=41.8 size=       0KiB time=00:00:00.33 bitrate=   1.1kbits/s speed=0.0107x elapsed=0:00:31.08    \nframe=   13 fps=0.4 q=42.9 size=       0KiB time=00:00:00.36 bitrate=   1.0kbits/s speed=0.0116x elapsed=0:00:31.59    \nframe=   13 fps=0.4 q=42.9 size=       0KiB time=00:00:00.36 bitrate=   1.0kbits/s speed=0.0114x elapsed=0:00:32.11    \nframe=   13 fps=0.4 q=42.9 size=       0KiB time=00:00:00.36 bitrate=   1.0kbits/s speed=0.0112x elapsed=0:00:32.62    \nframe=   13 fps=0.4 q=42.9 size=       0KiB time=00:00:00.36 bitrate=   1.0kbits/s speed=0.011x elapsed=0:00:33.18    \nframe=   13 fps=0.4 q=42.9 size=       0KiB time=00:00:00.36 bitrate=   1.0kbits/s speed=0.0109x elapsed=0:00:33.73    \nframe=   14 fps=0.4 q=42.9 size=       0KiB time=00:00:00.40 bitrate=   0.9kbits/s speed=0.0117x elapsed=0:00:34.26    \nframe=   14 fps=0.4 q=42.9 size=       0KiB time=00:00:00.40 bitrate=   0.9kbits/s speed=0.0115x elapsed=0:00:34.80    \nframe=   14 fps=0.4 q=42.9 size=       0KiB time=00:00:00.40 bitrate=   0.9kbits/s speed=0.0113x elapsed=0:00:35.32    \nframe=   15 fps=0.4 q=39.7 size=       0KiB time=00:00:00.43 bitrate=   0.8kbits/s speed=0.0121x elapsed=0:00:35.90    \nframe=   15 fps=0.4 q=39.7 size=       0KiB time=00:00:00.43 bitrate=   0.8kbits/s speed=0.0119x elapsed=0:00:36.49    \nframe=   15 fps=0.4 q=39.7 size=       0KiB time=00:00:00.43 bitrate=   0.8kbits/s speed=0.0117x elapsed=0:00:37.08    \nframe=   15 fps=0.4 q=39.7 size=       0KiB time=00:00:00.43 bitrate=   0.8kbits/s speed=0.0115x elapsed=0:00:37.61    \nframe=   15 fps=0.4 q=39.7 size=       0KiB time=00:00:00.43 bitrate=   0.8kbits/s speed=0.0113x elapsed=0:00:38.18    \nframe=   15 fps=0.4 q=39.7 size=       0KiB time=00:00:00.43 bitrate=   0.8kbits/s speed=0.0112x elapsed=0:00:38.73    \nframe=   16 fps=0.4 q=41.9 size=       0KiB time=00:00:00.46 bitrate=   0.8kbits/s speed=0.0119x elapsed=0:00:39.28    \nframe=   16 fps=0.4 q=41.9 size=       0KiB time=00:00:00.46 bitrate=   0.8kbits/s speed=0.0117x elapsed=0:00:39.84    \nframe=   16 fps=0.4 q=41.9 size=       0KiB time=00:00:00.46 bitrate=   0.8kbits/s speed=0.0116x elapsed=0:00:40.36    \nframe=   16 fps=0.4 q=41.9 size=       0KiB time=00:00:00.46 bitrate=   0.8kbits/s speed=0.0114x elapsed=0:00:40.88    \nframe=   16 fps=0.4 q=41.9 size=       0KiB time=00:00:00.46 bitrate=   0.8kbits/s speed=0.0113x elapsed=0:00:41.46    \nframe=   17 fps=0.4 q=39.4 size=       0KiB time=00:00:00.50 bitrate=   0.7kbits/s speed=0.0119x elapsed=0:00:42.01    \nframe=   17 fps=0.4 q=39.4 size=       0KiB time=00:00:00.50 bitrate=   0.7kbits/s speed=0.0118x elapsed=0:00:42.55    \nframe=   17 fps=0.4 q=39.4 size=       0KiB time=00:00:00.50 bitrate=   0.7kbits/s speed=0.0116x elapsed=0:00:43.10    \nframe=   17 fps=0.4 q=39.4 size=       0KiB time=00:00:00.50 bitrate=   0.7kbits/s speed=0.0115x elapsed=0:00:43.65    \nframe=   18 fps=0.4 q=41.6 size=       0KiB time=00:00:00.53 bitrate=   0.7kbits/s speed=0.0121x elapsed=0:00:44.20    \nframe=   18 fps=0.4 q=41.6 size=       0KiB time=00:00:00.53 bitrate=   0.7kbits/s speed=0.0119x elapsed=0:00:44.72    \nframe=   18 fps=0.4 q=41.6 size=       0KiB time=00:00:00.53 bitrate=   0.7kbits/s speed=0.0118x elapsed=0:00:45.24    \nframe=   18 fps=0.4 q=41.6 size=       0KiB time=00:00:00.53 bitrate=   0.7kbits/s speed=0.0116x elapsed=0:00:45.79    \nframe=   18 fps=0.4 q=41.6 size=       0KiB time=00:00:00.53 bitrate=   0.7kbits/s speed=0.0115x elapsed=0:00:46.35    \nframe=   18 fps=0.4 q=41.6 size=       0KiB time=00:00:00.53 bitrate=   0.7kbits/s speed=0.0114x elapsed=0:00:46.86    \nframe=   19 fps=0.4 q=39.7 size=       0KiB time=00:00:00.56 bitrate=   0.6kbits/s speed=0.012x elapsed=0:00:47.40    \nframe=   19 fps=0.4 q=39.7 size=       0KiB time=00:00:00.56 bitrate=   0.6kbits/s speed=0.0118x elapsed=0:00:47.98    \nframe=   19 fps=0.4 q=39.7 size=       0KiB time=00:00:00.56 bitrate=   0.6kbits/s speed=0.0117x elapsed=0:00:48.60    \nframe=   19 fps=0.4 q=39.7 size=       0KiB time=00:00:00.56 bitrate=   0.6kbits/s speed=0.0115x elapsed=0:00:49.16    \nframe=   19 fps=0.4 q=39.7 size=       0KiB time=00:00:00.56 bitrate=   0.6kbits/s speed=0.0114x elapsed=0:00:49.70    \nframe=   19 fps=0.4 q=39.7 size=       0KiB time=00:00:00.56 bitrate=   0.6kbits/s speed=0.0113x elapsed=0:00:50.24    \nframe=   19 fps=0.4 q=39.7 size=       0KiB time=00:00:00.56 bitrate=   0.6kbits/s speed=0.0112x elapsed=0:00:50.79    \nframe=   19 fps=0.4 q=39.7 size=       0KiB time=00:00:00.56 bitrate=   0.6kbits/s speed=0.011x elapsed=0:00:51.39    \nframe=   19 fps=0.4 q=39.7 size=       0KiB time=00:00:00.56 bitrate=   0.6kbits/s speed=0.0109x elapsed=0:00:51.99    \nframe=   20 fps=0.4 q=38.9 size=       0KiB time=00:00:00.60 bitrate=   0.6kbits/s speed=0.0114x elapsed=0:00:52.54    \nframe=   20 fps=0.4 q=38.9 size=       0KiB time=00:00:00.60 bitrate=   0.6kbits/s speed=0.0113x elapsed=0:00:53.08    \nframe=   20 fps=0.4 q=38.9 size=       0KiB time=00:00:00.60 bitrate=   0.6kbits/s speed=0.0112x elapsed=0:00:53.69    \nframe=   20 fps=0.4 q=38.9 size=       0KiB time=00:00:00.60 bitrate=   0.6kbits/s speed=0.011x elapsed=0:00:54.30    \nframe=   20 fps=0.4 q=38.9 size=       0KiB time=00:00:00.60 bitrate=   0.6kbits/s speed=0.0109x elapsed=0:00:54.89    \nframe=   20 fps=0.4 q=38.9 size=       0KiB time=00:00:00.60 bitrate=   0.6kbits/s speed=0.0108x elapsed=0:00:55.49    \nframe=   20 fps=0.4 q=38.9 size=       0KiB time=00:00:00.60 bitrate=   0.6kbits/s speed=0.0107x elapsed=0:00:56.08    \nframe=   20 fps=0.4 q=38.9 size=       0KiB time=00:00:00.60 bitrate=   0.6kbits/s speed=0.0106x elapsed=0:00:56.62    \nframe=   21 fps=0.4 q=41.9 size=       0KiB time=00:00:00.63 bitrate=   0.6kbits/s speed=0.0111x elapsed=0:00:57.14    \nframe=   21 fps=0.4 q=41.9 size=       0KiB time=00:00:00.63 bitrate=   0.6kbits/s speed=0.011x elapsed=0:00:57.66    \nframe=   21 fps=0.4 q=41.9 size=       0KiB time=00:00:00.63 bitrate=   0.6kbits/s speed=0.0109x elapsed=0:00:58.20    \nframe=   21 fps=0.4 q=41.9 size=       0KiB time=00:00:00.63 bitrate=   0.6kbits/s speed=0.0108x elapsed=0:00:58.72    \nframe=   21 fps=0.4 q=41.9 size=       0KiB time=00:00:00.63 bitrate=   0.6kbits/s speed=0.0107x elapsed=0:00:59.25    \nframe=   22 fps=0.4 q=38.8 size=       0KiB time=00:00:00.66 bitrate=   0.5kbits/s speed=0.0112x elapsed=0:00:59.78    \nframe=   22 fps=0.4 q=38.8 size=       0KiB time=00:00:00.66 bitrate=   0.5kbits/s speed=0.0111x elapsed=0:01:00.31    \nframe=   22 fps=0.4 q=38.8 size=       0KiB time=00:00:00.66 bitrate=   0.5kbits/s speed=0.011x elapsed=0:01:00.83    \nframe=   22 fps=0.4 q=38.8 size=       0KiB time=00:00:00.66 bitrate=   0.5kbits/s speed=0.0109x elapsed=0:01:01.35    \nframe=   22 fps=0.4 q=38.8 size=       0KiB time=00:00:00.66 bitrate=   0.5kbits/s speed=0.0108x elapsed=0:01:01.87    \nframe=   22 fps=0.4 q=38.8 size=       0KiB time=00:00:00.66 bitrate=   0.5kbits/s speed=0.0107x elapsed=0:01:02.38    \nframe=   23 fps=0.4 q=41.2 size=       0KiB time=00:00:00.70 bitrate=   0.5kbits/s speed=0.0111x elapsed=0:01:02.90    \nframe=   23 fps=0.4 q=41.2 size=       0KiB time=00:00:00.70 bitrate=   0.5kbits/s speed=0.011x elapsed=0:01:03.44    \nframe=   24 fps=0.4 q=39.2 size=       0KiB time=00:00:00.73 bitrate=   0.5kbits/s speed=0.0115x elapsed=0:01:03.98    \nframe=   24 fps=0.4 q=39.2 size=       0KiB time=00:00:00.73 bitrate=   0.5kbits/s speed=0.0114x elapsed=0:01:04.52    \nframe=   24 fps=0.4 q=39.2 size=       0KiB time=00:00:00.73 bitrate=   0.5kbits/s speed=0.0113x elapsed=0:01:05.03    \nframe=   24 fps=0.4 q=39.2 size=       0KiB time=00:00:00.73 bitrate=   0.5kbits/s speed=0.0112x elapsed=0:01:05.56    \nframe=   25 fps=0.4 q=39.1 size=       0KiB time=00:00:00.76 bitrate=   0.5kbits/s speed=0.0116x elapsed=0:01:06.09    \nframe=   25 fps=0.4 q=39.1 size=       0KiB time=00:00:00.76 bitrate=   0.5kbits/s speed=0.0115x elapsed=0:01:06.61    \nframe=   25 fps=0.4 q=39.1 size=       0KiB time=00:00:00.76 bitrate=   0.5kbits/s speed=0.0114x elapsed=0:01:07.14    \nframe=   26 fps=0.4 q=41.5 size=       0KiB time=00:00:00.80 bitrate=   0.4kbits/s speed=0.0118x elapsed=0:01:07.66    \nframe=   26 fps=0.4 q=41.5 size=       0KiB time=00:00:00.80 bitrate=   0.4kbits/s speed=0.0117x elapsed=0:01:08.17    \nframe=   26 fps=0.4 q=41.5 size=       0KiB time=00:00:00.80 bitrate=   0.4kbits/s speed=0.0116x elapsed=0:01:08.69    \nframe=   26 fps=0.4 q=41.5 size=       0KiB time=00:00:00.80 bitrate=   0.4kbits/s speed=0.0116x elapsed=0:01:09.21    \nframe=   27 fps=0.4 q=39.4 size=       0KiB time=00:00:00.83 bitrate=   0.4kbits/s speed=0.012x elapsed=0:01:09.72    \nframe=   27 fps=0.4 q=39.4 size=       0KiB time=00:00:00.83 bitrate=   0.4kbits/s speed=0.0119x elapsed=0:01:10.24    \nframe=   27 fps=0.4 q=39.4 size=       0KiB time=00:00:00.83 bitrate=   0.4kbits/s speed=0.0118x elapsed=0:01:10.75    \nframe=   27 fps=0.4 q=39.4 size=       0KiB time=00:00:00.83 bitrate=   0.4kbits/s speed=0.0117x elapsed=0:01:11.26    \nframe=   27 fps=0.4 q=39.4 size=       0KiB time=00:00:00.83 bitrate=   0.4kbits/s speed=0.0116x elapsed=0:01:11.79    \nframe=   28 fps=0.4 q=41.8 size=       0KiB time=00:00:00.86 bitrate=   0.4kbits/s speed=0.012x elapsed=0:01:12.30    \nframe=   28 fps=0.4 q=41.8 size=       0KiB time=00:00:00.86 bitrate=   0.4kbits/s speed=0.0119x elapsed=0:01:12.81    \nframe=   28 fps=0.4 q=41.8 size=       0KiB time=00:00:00.86 bitrate=   0.4kbits/s speed=0.0118x elapsed=0:01:13.34    \nframe=   29 fps=0.4 q=39.6 size=       0KiB time=00:00:00.90 bitrate=   0.4kbits/s speed=0.0122x elapsed=0:01:13.87    \nframe=   29 fps=0.4 q=39.6 size=       0KiB time=00:00:00.90 bitrate=   0.4kbits/s speed=0.0121x elapsed=0:01:14.39    \nframe=   30 fps=0.4 q=40.5 size=       0KiB time=00:00:00.93 bitrate=   0.4kbits/s speed=0.0125x elapsed=0:01:14.91    \nframe=   30 fps=0.4 q=40.5 size=       0KiB time=00:00:00.93 bitrate=   0.4kbits/s speed=0.0124x elapsed=0:01:15.42    \nframe=   30 fps=0.4 q=40.5 size=       0KiB time=00:00:00.93 bitrate=   0.4kbits/s speed=0.0123x elapsed=0:01:15.95    \nframe=   30 fps=0.4 q=40.5 size=       0KiB time=00:00:00.93 bitrate=   0.4kbits/s speed=0.0122x elapsed=0:01:16.48    \nframe=   30 fps=0.4 q=40.5 size=       0KiB time=00:00:00.93 bitrate=   0.4kbits/s speed=0.0121x elapsed=0:01:16.98    \nframe=   31 fps=0.4 q=42.2 size=       0KiB time=00:00:00.96 bitrate=   0.4kbits/s speed=0.0125x elapsed=0:01:17.50    \nframe=   31 fps=0.4 q=42.2 size=       0KiB time=00:00:00.96 bitrate=   0.4kbits/s speed=0.0124x elapsed=0:01:18.03    \nframe=   32 fps=0.4 q=42.1 size=       0KiB time=00:00:01.00 bitrate=   0.4kbits/s speed=0.0127x elapsed=0:01:18.56    \nframe=   32 fps=0.4 q=42.1 size=       0KiB time=00:00:01.00 bitrate=   0.4kbits/s speed=0.0126x elapsed=0:01:19.11    \nframe=   32 fps=0.4 q=42.1 size=       0KiB time=00:00:01.00 bitrate=   0.4kbits/s speed=0.0126x elapsed=0:01:19.63    \nframe=   32 fps=0.4 q=42.1 size=       0KiB time=00:00:01.00 bitrate=   0.4kbits/s speed=0.0125x elapsed=0:01:20.15    \nframe=   32 fps=0.4 q=42.1 size=       0KiB time=00:00:01.00 bitrate=   0.4kbits/s speed=0.0124x elapsed=0:01:20.70    \nframe=   32 fps=0.4 q=42.1 size=       0KiB time=00:00:01.00 bitrate=   0.4kbits/s speed=0.0123x elapsed=0:01:21.23    \nframe=   32 fps=0.4 q=42.1 size=       0KiB time=00:00:01.00 bitrate=   0.4kbits/s speed=0.0122x elapsed=0:01:21.81    \nframe=   32 fps=0.4 q=42.1 size=       0KiB time=00:00:01.00 bitrate=   0.4kbits/s speed=0.0121x elapsed=0:01:22.40    \nframe=   32 fps=0.4 q=42.1 size=       0KiB time=00:00:01.00 bitrate=   0.4kbits/s speed=0.012x elapsed=0:01:23.05    \nframe=   32 fps=0.4 q=42.1 size=       0KiB time=00:00:01.00 bitrate=   0.4kbits/s speed=0.012x elapsed=0:01:23.56    \nframe=   32 fps=0.4 q=42.1 size=       0KiB time=00:00:01.00 bitrate=   0.4kbits/s speed=0.0119x elapsed=0:01:24.12    \nframe=   33 fps=0.4 q=39.4 size=       0KiB time=00:00:01.03 bitrate=   0.3kbits/s speed=0.0122x elapsed=0:01:24.64    \nframe=   33 fps=0.4 q=39.4 size=       0KiB time=00:00:01.03 bitrate=   0.3kbits/s speed=0.0121x elapsed=0:01:25.22    \nframe=   33 fps=0.4 q=39.4 size=       0KiB time=00:00:01.03 bitrate=   0.3kbits/s speed=0.012x elapsed=0:01:25.75    \nframe=   33 fps=0.4 q=39.4 size=       0KiB time=00:00:01.03 bitrate=   0.3kbits/s speed=0.012x elapsed=0:01:26.34    \nframe=   33 fps=0.4 q=39.4 size=       0KiB time=00:00:01.03 bitrate=   0.3kbits/s speed=0.0119x elapsed=0:01:26.87    \nframe=   33 fps=0.4 q=39.4 size=       0KiB time=00:00:01.03 bitrate=   0.3kbits/s speed=0.0118x elapsed=0:01:27.39    \nframe=   34 fps=0.4 q=41.9 size=       0KiB time=00:00:01.06 bitrate=   0.3kbits/s speed=0.0121x elapsed=0:01:27.91    \nframe=   34 fps=0.4 q=41.9 size=       0KiB time=00:00:01.06 bitrate=   0.3kbits/s speed=0.0121x elapsed=0:01:28.44    \nframe=   35 fps=0.4 q=38.1 size=       0KiB time=00:00:01.10 bitrate=   0.3kbits/s speed=0.0124x elapsed=0:01:28.97    \nframe=   36 fps=0.4 q=40.5 size=       0KiB time=00:00:01.13 bitrate=   0.3kbits/s speed=0.0127x elapsed=0:01:29.50    \nframe=   36 fps=0.4 q=40.5 size=       0KiB time=00:00:01.13 bitrate=   0.3kbits/s speed=0.0126x elapsed=0:01:30.00    \nframe=   36 fps=0.4 q=40.5 size=       0KiB time=00:00:01.13 bitrate=   0.3kbits/s speed=0.0125x elapsed=0:01:30.52    \nframe=   37 fps=0.4 q=42.6 size=       0KiB time=00:00:01.16 bitrate=   0.3kbits/s speed=0.0128x elapsed=0:01:31.04    \nframe=   37 fps=0.4 q=42.6 size=       0KiB time=00:00:01.16 bitrate=   0.3kbits/s speed=0.0127x elapsed=0:01:31.56    \nframe=   37 fps=0.4 q=42.6 size=       0KiB time=00:00:01.16 bitrate=   0.3kbits/s speed=0.0127x elapsed=0:01:32.10    \nframe=   37 fps=0.4 q=42.6 size=       0KiB time=00:00:01.16 bitrate=   0.3kbits/s speed=0.0126x elapsed=0:01:32.61    \nframe=   37 fps=0.4 q=42.6 size=       0KiB time=00:00:01.16 bitrate=   0.3kbits/s speed=0.0125x elapsed=0:01:33.14    \nframe=   38 fps=0.4 q=43.4 size=       0KiB time=00:00:01.20 bitrate=   0.3kbits/s speed=0.0128x elapsed=0:01:33.67    \nframe=   39 fps=0.4 q=38.7 size=       0KiB time=00:00:01.23 bitrate=   0.3kbits/s speed=0.0131x elapsed=0:01:34.17    \nframe=   39 fps=0.4 q=38.7 size=       0KiB time=00:00:01.23 bitrate=   0.3kbits/s speed=0.013x elapsed=0:01:34.69    \nframe=   40 fps=0.4 q=41.3 size=       0KiB time=00:00:01.26 bitrate=   0.3kbits/s speed=0.0133x elapsed=0:01:35.21    \nframe=   40 fps=0.4 q=41.3 size=       0KiB time=00:00:01.26 bitrate=   0.3kbits/s speed=0.0132x elapsed=0:01:35.72    \nframe=   41 fps=0.4 q=43.2 size=       0KiB time=00:00:01.30 bitrate=   0.3kbits/s speed=0.0135x elapsed=0:01:36.24    \nframe=   41 fps=0.4 q=43.2 size=       0KiB time=00:00:01.30 bitrate=   0.3kbits/s speed=0.0134x elapsed=0:01:36.76    \nframe=   41 fps=0.4 q=43.2 size=       0KiB time=00:00:01.30 bitrate=   0.3kbits/s speed=0.0134x elapsed=0:01:37.29    \nframe=   42 fps=0.4 q=43.6 size=       0KiB time=00:00:01.33 bitrate=   0.3kbits/s speed=0.0136x elapsed=0:01:37.82    \nframe=   43 fps=0.4 q=38.4 size=       0KiB time=00:00:01.36 bitrate=   0.3kbits/s speed=0.0139x elapsed=0:01:38.33    \nframe=   43 fps=0.4 q=38.4 size=       0KiB time=00:00:01.36 bitrate=   0.3kbits/s speed=0.0138x elapsed=0:01:38.85    \nframe=   44 fps=0.4 q=39.9 size=       0KiB time=00:00:01.40 bitrate=   0.3kbits/s speed=0.0141x elapsed=0:01:39.36    \nframe=   44 fps=0.4 q=39.9 size=       0KiB time=00:00:01.40 bitrate=   0.3kbits/s speed=0.014x elapsed=0:01:39.87    \nframe=   45 fps=0.4 q=42.5 size=       0KiB time=00:00:01.43 bitrate=   0.2kbits/s speed=0.0143x elapsed=0:01:40.39    \nframe=   45 fps=0.4 q=42.5 size=       0KiB time=00:00:01.43 bitrate=   0.2kbits/s speed=0.0142x elapsed=0:01:40.92    \nframe=   45 fps=0.4 q=42.5 size=       0KiB time=00:00:01.43 bitrate=   0.2kbits/s speed=0.0141x elapsed=0:01:41.43    \nframe=   46 fps=0.5 q=42.2 size=       0KiB time=00:00:01.46 bitrate=   0.2kbits/s speed=0.0144x elapsed=0:01:41.96    \nframe=   47 fps=0.5 q=42.2 size=       0KiB time=00:00:01.50 bitrate=   0.2kbits/s speed=0.0146x elapsed=0:01:42.48    \nframe=   47 fps=0.5 q=42.2 size=       0KiB time=00:00:01.50 bitrate=   0.2kbits/s speed=0.0146x elapsed=0:01:42.99    \nframe=   47 fps=0.5 q=42.2 size=       0KiB time=00:00:01.50 bitrate=   0.2kbits/s speed=0.0145x elapsed=0:01:43.50    \nframe=   48 fps=0.5 q=38.7 size=       0KiB time=00:00:01.53 bitrate=   0.2kbits/s speed=0.0147x elapsed=0:01:44.02    \nframe=   49 fps=0.5 q=40.4 size=       0KiB time=00:00:01.56 bitrate=   0.2kbits/s speed=0.015x elapsed=0:01:44.54    \nframe=   49 fps=0.5 q=40.4 size=       0KiB time=00:00:01.56 bitrate=   0.2kbits/s speed=0.0149x elapsed=0:01:45.06    \nframe=   49 fps=0.5 q=40.4 size=       0KiB time=00:00:01.56 bitrate=   0.2kbits/s speed=0.0148x elapsed=0:01:45.58    \nframe=   49 fps=0.5 q=40.4 size=       0KiB time=00:00:01.56 bitrate=   0.2kbits/s speed=0.0148x elapsed=0:01:46.09    \nframe=   50 fps=0.5 q=43.1 size=       0KiB time=00:00:01.60 bitrate=   0.2kbits/s speed=0.015x elapsed=0:01:46.61    \nframe=   50 fps=0.5 q=43.1 size=       0KiB time=00:00:01.60 bitrate=   0.2kbits/s speed=0.0149x elapsed=0:01:47.12    \nframe=   50 fps=0.5 q=43.1 size=       0KiB time=00:00:01.60 bitrate=   0.2kbits/s speed=0.0149x elapsed=0:01:47.66    \nframe=   51 fps=0.5 q=43.1 size=       0KiB time=00:00:01.63 bitrate=   0.2kbits/s speed=0.0151x elapsed=0:01:48.17    \nframe=   51 fps=0.5 q=43.1 size=       0KiB time=00:00:01.63 bitrate=   0.2kbits/s speed=0.015x elapsed=0:01:48.69    \nframe=   51 fps=0.5 q=43.1 size=       0KiB time=00:00:01.63 bitrate=   0.2kbits/s speed=0.015x elapsed=0:01:49.21    \nframe=   52 fps=0.5 q=38.5 size=       0KiB time=00:00:01.66 bitrate=   0.2kbits/s speed=0.0152x elapsed=0:01:49.74    \nframe=   52 fps=0.5 q=38.5 size=       0KiB time=00:00:01.66 bitrate=   0.2kbits/s speed=0.0151x elapsed=0:01:50.27    \nframe=   53 fps=0.5 q=39.5 size=       0KiB time=00:00:01.70 bitrate=   0.2kbits/s speed=0.0153x elapsed=0:01:50.80    \nframe=   53 fps=0.5 q=39.5 size=       0KiB time=00:00:01.70 bitrate=   0.2kbits/s speed=0.0153x elapsed=0:01:51.34    \nframe=   54 fps=0.5 q=42.3 size=       0KiB time=00:00:01.73 bitrate=   0.2kbits/s speed=0.0155x elapsed=0:01:51.88    \nframe=   54 fps=0.5 q=42.3 size=       0KiB time=00:00:01.73 bitrate=   0.2kbits/s speed=0.0154x elapsed=0:01:52.39    \nframe=   55 fps=0.5 q=41.9 size=       0KiB time=00:00:01.76 bitrate=   0.2kbits/s speed=0.0156x elapsed=0:01:52.92    \nframe=   55 fps=0.5 q=41.9 size=       0KiB time=00:00:01.76 bitrate=   0.2kbits/s speed=0.0156x elapsed=0:01:53.45    \nframe=   55 fps=0.5 q=41.9 size=       0KiB time=00:00:01.76 bitrate=   0.2kbits/s speed=0.0155x elapsed=0:01:53.97    \nframe=   56 fps=0.5 q=41.9 size=       0KiB time=00:00:01.80 bitrate=   0.2kbits/s speed=0.0157x elapsed=0:01:54.49    \nframe=   56 fps=0.5 q=41.9 size=       0KiB time=00:00:01.80 bitrate=   0.2kbits/s speed=0.0157x elapsed=0:01:55.00    \nframe=   57 fps=0.5 q=38.3 size=       0KiB time=00:00:01.83 bitrate=   0.2kbits/s speed=0.0159x elapsed=0:01:55.52    \nframe=   57 fps=0.5 q=38.3 size=       0KiB time=00:00:01.83 bitrate=   0.2kbits/s speed=0.0158x elapsed=0:01:56.03    \nframe=   58 fps=0.5 q=39.6 size=       0KiB time=00:00:01.86 bitrate=   0.2kbits/s speed=0.016x elapsed=0:01:56.55    \nframe=   60 fps=0.5 q=42.0 size=       0KiB time=00:00:01.93 bitrate=   0.2kbits/s speed=0.0165x elapsed=0:01:57.08    \nframe=   60 fps=0.5 q=42.0 size=       0KiB time=00:00:01.93 bitrate=   0.2kbits/s speed=0.0164x elapsed=0:01:57.61    \nframe=   60 fps=0.5 q=42.0 size=       0KiB time=00:00:01.93 bitrate=   0.2kbits/s speed=0.0164x elapsed=0:01:58.17    \nframe=   60 fps=0.5 q=42.0 size=       0KiB time=00:00:01.93 bitrate=   0.2kbits/s speed=0.0163x elapsed=0:01:58.70    \nframe=   61 fps=0.5 q=42.3 size=       0KiB time=00:00:01.96 bitrate=   0.2kbits/s speed=0.0165x elapsed=0:01:59.22    \nframe=   61 fps=0.5 q=42.3 size=       0KiB time=00:00:01.96 bitrate=   0.2kbits/s speed=0.0164x elapsed=0:01:59.74    \nframe=   61 fps=0.5 q=42.3 size=       0KiB time=00:00:01.96 bitrate=   0.2kbits/s speed=0.0164x elapsed=0:02:00.27    \nframe=   61 fps=0.5 q=42.3 size=       0KiB time=00:00:01.96 bitrate=   0.2kbits/s speed=0.0163x elapsed=0:02:00.79    \nframe=   62 fps=0.5 q=38.7 size=       0KiB time=00:00:02.00 bitrate=   0.2kbits/s speed=0.0165x elapsed=0:02:01.31    \nframe=   63 fps=0.5 q=39.5 size=       0KiB time=00:00:02.03 bitrate=   0.2kbits/s speed=0.0167x elapsed=0:02:01.84    \nframe=   63 fps=0.5 q=39.5 size=       0KiB time=00:00:02.03 bitrate=   0.2kbits/s speed=0.0166x elapsed=0:02:02.37    \nframe=   64 fps=0.5 q=42.9 size=       0KiB time=00:00:02.06 bitrate=   0.2kbits/s speed=0.0168x elapsed=0:02:02.88    \nframe=   64 fps=0.5 q=42.9 size=       0KiB time=00:00:02.06 bitrate=   0.2kbits/s speed=0.0167x elapsed=0:02:03.40    \nframe=   65 fps=0.5 q=42.4 size=       0KiB time=00:00:02.10 bitrate=   0.2kbits/s speed=0.0169x elapsed=0:02:03.92    \nframe=   66 fps=0.5 q=42.4 size=       0KiB time=00:00:02.13 bitrate=   0.2kbits/s speed=0.0171x elapsed=0:02:04.44    \nframe=   66 fps=0.5 q=42.4 size=       0KiB time=00:00:02.13 bitrate=   0.2kbits/s speed=0.0171x elapsed=0:02:04.96    \nframe=   66 fps=0.5 q=42.4 size=       0KiB time=00:00:02.13 bitrate=   0.2kbits/s speed=0.017x elapsed=0:02:05.48    \nframe=   66 fps=0.5 q=42.4 size=       0KiB time=00:00:02.13 bitrate=   0.2kbits/s speed=0.0169x elapsed=0:02:06.02    \nframe=   67 fps=0.5 q=38.4 size=     256KiB time=00:00:02.16 bitrate= 968.1kbits/s speed=0.0171x elapsed=0:02:06.55    \nframe=   67 fps=0.5 q=38.4 size=     256KiB time=00:00:02.16 bitrate= 968.1kbits/s speed=0.0171x elapsed=0:02:07.07    \nframe=   68 fps=0.5 q=40.7 size=     256KiB time=00:00:02.20 bitrate= 953.4kbits/s speed=0.0172x elapsed=0:02:07.59    \nframe=   68 fps=0.5 q=40.7 size=     256KiB time=00:00:02.20 bitrate= 953.4kbits/s speed=0.0172x elapsed=0:02:08.12    \nframe=   68 fps=0.5 q=40.7 size=     256KiB time=00:00:02.20 bitrate= 953.4kbits/s speed=0.0171x elapsed=0:02:08.62    \nframe=   69 fps=0.5 q=42.3 size=     256KiB time=00:00:02.23 bitrate= 939.2kbits/s speed=0.0173x elapsed=0:02:09.14    \nframe=   69 fps=0.5 q=42.3 size=     256KiB time=00:00:02.23 bitrate= 939.2kbits/s speed=0.0172x elapsed=0:02:09.66    \nframe=   71 fps=0.5 q=42.3 size=     256KiB time=00:00:02.30 bitrate= 912.0kbits/s speed=0.0177x elapsed=0:02:10.17    \nframe=   71 fps=0.5 q=42.3 size=     256KiB time=00:00:02.30 bitrate= 912.0kbits/s speed=0.0176x elapsed=0:02:10.69    \nframe=   71 fps=0.5 q=42.3 size=     256KiB time=00:00:02.30 bitrate= 912.0kbits/s speed=0.0175x elapsed=0:02:11.21    \nframe=   72 fps=0.5 q=38.4 size=     256KiB time=00:00:02.33 bitrate= 898.9kbits/s speed=0.0177x elapsed=0:02:11.72    \nframe=   72 fps=0.5 q=38.4 size=     256KiB time=00:00:02.33 bitrate= 898.9kbits/s speed=0.0176x elapsed=0:02:12.24    \nframe=   73 fps=0.5 q=40.8 size=     256KiB time=00:00:02.36 bitrate= 886.3kbits/s speed=0.0178x elapsed=0:02:12.77    \nframe=   73 fps=0.5 q=40.8 size=     256KiB time=00:00:02.36 bitrate= 886.3kbits/s speed=0.0178x elapsed=0:02:13.28    \nframe=   75 fps=0.6 q=42.1 size=     256KiB time=00:00:02.43 bitrate= 862.0kbits/s speed=0.0182x elapsed=0:02:13.80    \nframe=   76 fps=0.6 q=42.3 size=     256KiB time=00:00:02.46 bitrate= 850.3kbits/s speed=0.0184x elapsed=0:02:14.32    \nframe=   76 fps=0.6 q=42.3 size=     256KiB time=00:00:02.46 bitrate= 850.3kbits/s speed=0.0183x elapsed=0:02:14.85    \nframe=   76 fps=0.6 q=42.3 size=     256KiB time=00:00:02.46 bitrate= 850.3kbits/s speed=0.0182x elapsed=0:02:15.37    \nframe=   76 fps=0.6 q=42.3 size=     256KiB time=00:00:02.46 bitrate= 850.3kbits/s speed=0.0182x elapsed=0:02:15.89    \nframe=   78 fps=0.6 q=39.7 size=     256KiB time=00:00:02.53 bitrate= 828.0kbits/s speed=0.0186x elapsed=0:02:16.42    \nframe=   79 fps=0.6 q=42.6 size=     256KiB time=00:00:02.56 bitrate= 817.2kbits/s speed=0.0187x elapsed=0:02:16.94    \nframe=   80 fps=0.6 q=42.4 size=     256KiB time=00:00:02.60 bitrate= 806.7kbits/s speed=0.0189x elapsed=0:02:17.46    \nframe=   80 fps=0.6 q=42.4 size=     256KiB time=00:00:02.60 bitrate= 806.7kbits/s speed=0.0188x elapsed=0:02:17.97    \nframe=   80 fps=0.6 q=42.4 size=     256KiB time=00:00:02.60 bitrate= 806.7kbits/s speed=0.0188x elapsed=0:02:18.53    \nframe=   80 fps=0.6 q=42.4 size=     256KiB time=00:00:02.60 bitrate= 806.7kbits/s speed=0.0187x elapsed=0:02:19.15    \nframe=   80 fps=0.6 q=42.4 size=     256KiB time=00:00:02.60 bitrate= 806.7kbits/s speed=0.0186x elapsed=0:02:19.69    \nframe=   80 fps=0.6 q=42.4 size=     256KiB time=00:00:02.60 bitrate= 806.7kbits/s speed=0.0185x elapsed=0:02:20.25    \nframe=   80 fps=0.6 q=42.4 size=     256KiB time=00:00:02.60 bitrate= 806.7kbits/s speed=0.0185x elapsed=0:02:20.77    \nframe=   80 fps=0.6 q=42.4 size=     256KiB time=00:00:02.60 bitrate= 806.7kbits/s speed=0.0184x elapsed=0:02:21.30    \nframe=   81 fps=0.6 q=38.2 size=     256KiB time=00:00:02.63 bitrate= 796.5kbits/s speed=0.0186x elapsed=0:02:21.82    \nframe=   82 fps=0.6 q=39.2 size=     256KiB time=00:00:02.66 bitrate= 786.6kbits/s speed=0.0187x elapsed=0:02:22.34    \nframe=   82 fps=0.6 q=39.2 size=     256KiB time=00:00:02.66 bitrate= 786.6kbits/s speed=0.0187x elapsed=0:02:22.88    \nframe=   83 fps=0.6 q=42.0 size=     256KiB time=00:00:02.70 bitrate= 776.9kbits/s speed=0.0188x elapsed=0:02:23.42    \nframe=   84 fps=0.6 q=41.4 size=     256KiB time=00:00:02.73 bitrate= 767.4kbits/s speed=0.019x elapsed=0:02:23.94    \nframe=   84 fps=0.6 q=41.4 size=     256KiB time=00:00:02.73 bitrate= 767.4kbits/s speed=0.0189x elapsed=0:02:24.45    \nframe=   84 fps=0.6 q=41.4 size=     256KiB time=00:00:02.73 bitrate= 767.4kbits/s speed=0.0189x elapsed=0:02:24.97    \nframe=   84 fps=0.6 q=41.4 size=     256KiB time=00:00:02.73 bitrate= 767.4kbits/s speed=0.0188x elapsed=0:02:25.51    \nframe=   85 fps=0.6 q=41.9 size=     256KiB time=00:00:02.76 bitrate= 758.1kbits/s speed=0.0189x elapsed=0:02:26.03    \nframe=   85 fps=0.6 q=41.9 size=     256KiB time=00:00:02.76 bitrate= 758.1kbits/s speed=0.0189x elapsed=0:02:26.55    \nframe=   85 fps=0.6 q=41.9 size=     256KiB time=00:00:02.76 bitrate= 758.1kbits/s speed=0.0188x elapsed=0:02:27.07    \nframe=   86 fps=0.6 q=38.3 size=     256KiB time=00:00:02.80 bitrate= 749.1kbits/s speed=0.019x elapsed=0:02:27.62    \nframe=   86 fps=0.6 q=38.3 size=     256KiB time=00:00:02.80 bitrate= 749.1kbits/s speed=0.0189x elapsed=0:02:28.14    \nframe=   86 fps=0.6 q=38.3 size=     256KiB time=00:00:02.80 bitrate= 749.1kbits/s speed=0.0188x elapsed=0:02:28.67    \nframe=   86 fps=0.6 q=38.3 size=     256KiB time=00:00:02.80 bitrate= 749.1kbits/s speed=0.0188x elapsed=0:02:29.17    \nframe=   87 fps=0.6 q=39.7 size=     256KiB time=00:00:02.83 bitrate= 740.3kbits/s speed=0.0189x elapsed=0:02:29.70    \nframe=   88 fps=0.6 q=42.1 size=     256KiB time=00:00:02.86 bitrate= 731.7kbits/s speed=0.0191x elapsed=0:02:30.24    \nframe=   89 fps=0.6 q=42.5 size=     256KiB time=00:00:02.90 bitrate= 723.3kbits/s speed=0.0192x elapsed=0:02:30.78    \nframe=   89 fps=0.6 q=42.5 size=     256KiB time=00:00:02.90 bitrate= 723.3kbits/s speed=0.0192x elapsed=0:02:31.30    \nframe=   89 fps=0.6 q=42.5 size=     256KiB time=00:00:02.90 bitrate= 723.3kbits/s speed=0.0191x elapsed=0:02:31.82    \nframe=   89 fps=0.6 q=42.5 size=     256KiB time=00:00:02.90 bitrate= 723.3kbits/s speed=0.019x elapsed=0:02:32.35    \nframe=   90 fps=0.6 q=38.3 size=     256KiB time=00:00:02.93 bitrate= 715.1kbits/s speed=0.0192x elapsed=0:02:32.89    \nframe=   90 fps=0.6 q=38.3 size=     256KiB time=00:00:02.93 bitrate= 715.1kbits/s speed=0.0191x elapsed=0:02:33.41    \nframe=   90 fps=0.6 q=38.3 size=     256KiB time=00:00:02.93 bitrate= 715.1kbits/s speed=0.0191x elapsed=0:02:33.94    \nframe=   91 fps=0.6 q=39.4 size=     256KiB time=00:00:02.96 bitrate= 707.0kbits/s speed=0.0192x elapsed=0:02:34.48    \nframe=   91 fps=0.6 q=39.4 size=     256KiB time=00:00:02.96 bitrate= 707.0kbits/s speed=0.0191x elapsed=0:02:35.00    \nframe=   91 fps=0.6 q=39.4 size=     256KiB time=00:00:02.96 bitrate= 707.0kbits/s speed=0.0191x elapsed=0:02:35.52    \nframe=   92 fps=0.6 q=42.7 size=     256KiB time=00:00:03.00 bitrate= 699.2kbits/s speed=0.0192x elapsed=0:02:36.05    \nframe=   93 fps=0.6 q=42.1 size=     256KiB time=00:00:03.03 bitrate= 691.5kbits/s speed=0.0194x elapsed=0:02:36.57    \nframe=   93 fps=0.6 q=42.1 size=     256KiB time=00:00:03.03 bitrate= 691.5kbits/s speed=0.0193x elapsed=0:02:37.09    \nframe=   94 fps=0.6 q=42.1 size=     256KiB time=00:00:03.06 bitrate= 684.0kbits/s speed=0.0195x elapsed=0:02:37.62    \nframe=   94 fps=0.6 q=42.1 size=     256KiB time=00:00:03.06 bitrate= 684.0kbits/s speed=0.0194x elapsed=0:02:38.17    \nframe=   94 fps=0.6 q=42.1 size=     256KiB time=00:00:03.06 bitrate= 684.0kbits/s speed=0.0193x elapsed=0:02:38.74    \nframe=   94 fps=0.6 q=42.1 size=     256KiB time=00:00:03.06 bitrate= 684.0kbits/s speed=0.0193x elapsed=0:02:39.27    \nframe=   95 fps=0.6 q=38.6 size=     256KiB time=00:00:03.10 bitrate= 676.6kbits/s speed=0.0194x elapsed=0:02:39.78    \nframe=   95 fps=0.6 q=38.6 size=     256KiB time=00:00:03.10 bitrate= 676.6kbits/s speed=0.0193x elapsed=0:02:40.31    \nframe=   95 fps=0.6 q=38.6 size=     256KiB time=00:00:03.10 bitrate= 676.6kbits/s speed=0.0193x elapsed=0:02:40.84    \nframe=   95 fps=0.6 q=38.6 size=     256KiB time=00:00:03.10 bitrate= 676.6kbits/s speed=0.0192x elapsed=0:02:41.36    \nframe=   96 fps=0.6 q=39.9 size=     256KiB time=00:00:03.13 bitrate= 669.4kbits/s speed=0.0194x elapsed=0:02:41.88    \nframe=   96 fps=0.6 q=39.9 size=     256KiB time=00:00:03.13 bitrate= 669.4kbits/s speed=0.0193x elapsed=0:02:42.39    \nframe=   97 fps=0.6 q=42.4 size=     256KiB time=00:00:03.16 bitrate= 662.4kbits/s speed=0.0194x elapsed=0:02:42.91    \nframe=   98 fps=0.6 q=42.0 size=     256KiB time=00:00:03.20 bitrate= 655.5kbits/s speed=0.0196x elapsed=0:02:43.43    \nframe=   98 fps=0.6 q=42.0 size=     256KiB time=00:00:03.20 bitrate= 655.5kbits/s speed=0.0195x elapsed=0:02:43.94    \nframe=   99 fps=0.6 q=42.3 size=     256KiB time=00:00:03.23 bitrate= 648.7kbits/s speed=0.0197x elapsed=0:02:44.47    \nframe=  100 fps=0.6 q=38.4 size=     256KiB time=00:00:03.26 bitrate= 642.1kbits/s speed=0.0198x elapsed=0:02:44.98    \nframe=  101 fps=0.6 q=40.1 size=     256KiB time=00:00:03.30 bitrate= 635.6kbits/s speed=0.0199x elapsed=0:02:45.50    \nframe=  101 fps=0.6 q=40.1 size=     256KiB time=00:00:03.30 bitrate= 635.6kbits/s speed=0.0199x elapsed=0:02:46.03    \nframe=  101 fps=0.6 q=40.1 size=     256KiB time=00:00:03.30 bitrate= 635.6kbits/s speed=0.0198x elapsed=0:02:46.56    \nframe=  102 fps=0.6 q=42.5 size=     256KiB time=00:00:03.33 bitrate= 629.3kbits/s speed=0.0199x elapsed=0:02:47.09    \nframe=  103 fps=0.6 q=42.6 size=     256KiB time=00:00:03.36 bitrate= 623.0kbits/s speed=0.0201x elapsed=0:02:47.60    \nframe=  104 fps=0.6 q=38.2 size=     256KiB time=00:00:03.40 bitrate= 616.9kbits/s speed=0.0202x elapsed=0:02:48.12    \nframe=  104 fps=0.6 q=38.2 size=     256KiB time=00:00:03.40 bitrate= 616.9kbits/s speed=0.0202x elapsed=0:02:48.64    \nframe=  105 fps=0.6 q=40.2 size=     256KiB time=00:00:03.43 bitrate= 610.9kbits/s speed=0.0203x elapsed=0:02:49.16    \nframe=  105 fps=0.6 q=40.2 size=     256KiB time=00:00:03.43 bitrate= 610.9kbits/s speed=0.0202x elapsed=0:02:49.67    \nframe=  106 fps=0.6 q=42.1 size=     256KiB time=00:00:03.46 bitrate= 605.0kbits/s speed=0.0204x elapsed=0:02:50.20    \nframe=  106 fps=0.6 q=42.1 size=     256KiB time=00:00:03.46 bitrate= 605.0kbits/s speed=0.0203x elapsed=0:02:50.73    \nframe=  108 fps=0.6 q=38.2 size=     256KiB time=00:00:03.53 bitrate= 593.6kbits/s speed=0.0206x elapsed=0:02:51.24    \nframe=  108 fps=0.6 q=38.2 size=     256KiB time=00:00:03.53 bitrate= 593.6kbits/s speed=0.0206x elapsed=0:02:51.76    \nframe=  109 fps=0.6 q=40.3 size=     256KiB time=00:00:03.56 bitrate= 588.1kbits/s speed=0.0207x elapsed=0:02:52.26    \nframe=  109 fps=0.6 q=40.3 size=     256KiB time=00:00:03.56 bitrate= 588.1kbits/s speed=0.0206x elapsed=0:02:52.80    \nframe=  110 fps=0.6 q=42.4 size=     256KiB time=00:00:03.60 bitrate= 582.6kbits/s speed=0.0208x elapsed=0:02:53.31    \nframe=  111 fps=0.6 q=42.5 size=     256KiB time=00:00:03.63 bitrate= 577.3kbits/s speed=0.0209x elapsed=0:02:53.84    \nframe=  111 fps=0.6 q=42.5 size=     256KiB time=00:00:03.63 bitrate= 577.3kbits/s speed=0.0208x elapsed=0:02:54.35    \nframe=  113 fps=0.6 q=40.5 size=     256KiB time=00:00:03.70 bitrate= 566.9kbits/s speed=0.0212x elapsed=0:02:54.86    \nframe=  113 fps=0.6 q=40.5 size=     256KiB time=00:00:03.70 bitrate= 566.9kbits/s speed=0.0211x elapsed=0:02:55.38    \nframe=  114 fps=0.6 q=42.8 size=     256KiB time=00:00:03.73 bitrate= 561.8kbits/s speed=0.0212x elapsed=0:02:55.91    \nframe=  115 fps=0.7 q=43.0 size=     256KiB time=00:00:03.76 bitrate= 556.9kbits/s speed=0.0213x elapsed=0:02:56.44    \nframe=  115 fps=0.6 q=43.0 size=     256KiB time=00:00:03.76 bitrate= 556.9kbits/s speed=0.0213x elapsed=0:02:57.00    \nframe=  116 fps=0.7 q=38.3 size=     256KiB time=00:00:03.80 bitrate= 552.0kbits/s speed=0.0214x elapsed=0:02:57.53    \nframe=  116 fps=0.7 q=38.3 size=     256KiB time=00:00:03.80 bitrate= 552.0kbits/s speed=0.0213x elapsed=0:02:58.04    \nframe=  116 fps=0.6 q=38.3 size=     256KiB time=00:00:03.80 bitrate= 552.0kbits/s speed=0.0213x elapsed=0:02:58.57    \nframe=  116 fps=0.6 q=38.3 size=     256KiB time=00:00:03.80 bitrate= 552.0kbits/s speed=0.0212x elapsed=0:02:59.09    \nframe=  116 fps=0.6 q=38.3 size=     256KiB time=00:00:03.80 bitrate= 552.0kbits/s speed=0.0212x elapsed=0:02:59.61    \nframe=  117 fps=0.6 q=40.6 size=     256KiB time=00:00:03.83 bitrate= 547.2kbits/s speed=0.0213x elapsed=0:03:00.16    \nframe=  118 fps=0.7 q=42.8 size=     256KiB time=00:00:03.86 bitrate= 542.5kbits/s speed=0.0214x elapsed=0:03:00.71    \nframe=  119 fps=0.7 q=43.1 size=     256KiB time=00:00:03.90 bitrate= 537.8kbits/s speed=0.0215x elapsed=0:03:01.22    \nframe=  120 fps=0.7 q=38.9 size=     256KiB time=00:00:03.93 bitrate= 533.3kbits/s speed=0.0216x elapsed=0:03:01.74    \nframe=  121 fps=0.7 q=40.4 size=     256KiB time=00:00:03.96 bitrate= 528.8kbits/s speed=0.0218x elapsed=0:03:02.25    \nframe=  122 fps=0.7 q=42.5 size=     256KiB time=00:00:04.00 bitrate= 524.4kbits/s speed=0.0219x elapsed=0:03:02.77    \nframe=  123 fps=0.7 q=42.6 size=     256KiB time=00:00:04.03 bitrate= 520.0kbits/s speed=0.022x elapsed=0:03:03.29    \nframe=  124 fps=0.7 q=38.6 size=     256KiB time=00:00:04.06 bitrate= 515.8kbits/s speed=0.0221x elapsed=0:03:03.80    \nframe=  125 fps=0.7 q=40.1 size=     256KiB time=00:00:04.10 bitrate= 511.6kbits/s speed=0.0222x elapsed=0:03:04.32    \nframe=  126 fps=0.7 q=42.0 size=     256KiB time=00:00:04.13 bitrate= 507.5kbits/s speed=0.0224x elapsed=0:03:04.84    \nframe=  127 fps=0.7 q=42.3 size=     256KiB time=00:00:04.16 bitrate= 503.4kbits/s speed=0.0225x elapsed=0:03:05.34    \nframe=  127 fps=0.7 q=42.3 size=     256KiB time=00:00:04.16 bitrate= 503.4kbits/s speed=0.0224x elapsed=0:03:05.87    \nframe=  129 fps=0.7 q=40.0 size=     512KiB time=00:00:04.23 bitrate= 990.9kbits/s speed=0.0227x elapsed=0:03:06.38    \nframe=  129 fps=0.7 q=40.0 size=     512KiB time=00:00:04.23 bitrate= 990.9kbits/s speed=0.0227x elapsed=0:03:06.89    \nframe=  129 fps=0.7 q=40.0 size=     512KiB time=00:00:04.23 bitrate= 990.9kbits/s speed=0.0226x elapsed=0:03:07.41    \nframe=  129 fps=0.7 q=40.0 size=     512KiB time=00:00:04.23 bitrate= 990.9kbits/s speed=0.0225x elapsed=0:03:07.94    \nframe=  129 fps=0.7 q=40.0 size=     512KiB time=00:00:04.23 bitrate= 990.9kbits/s speed=0.0225x elapsed=0:03:08.45    \nframe=  130 fps=0.7 q=42.4 size=     512KiB time=00:00:04.26 bitrate= 983.1kbits/s speed=0.0226x elapsed=0:03:08.97    \nframe=  131 fps=0.7 q=42.1 size=     512KiB time=00:00:04.30 bitrate= 975.5kbits/s speed=0.0227x elapsed=0:03:09.49    \nframe=  132 fps=0.7 q=39.5 size=     512KiB time=00:00:04.33 bitrate= 968.0kbits/s speed=0.0228x elapsed=0:03:10.03    \nframe=  132 fps=0.7 q=39.5 size=     512KiB time=00:00:04.33 bitrate= 968.0kbits/s speed=0.0227x elapsed=0:03:10.55    \nframe=  132 fps=0.7 q=39.5 size=     512KiB time=00:00:04.33 bitrate= 968.0kbits/s speed=0.0227x elapsed=0:03:11.06    \nframe=  133 fps=0.7 q=40.0 size=     512KiB time=00:00:04.36 bitrate= 960.6kbits/s speed=0.0228x elapsed=0:03:11.58    \nframe=  133 fps=0.7 q=40.0 size=     512KiB time=00:00:04.36 bitrate= 960.6kbits/s speed=0.0227x elapsed=0:03:12.09    \nframe=  134 fps=0.7 q=42.1 size=     512KiB time=00:00:04.40 bitrate= 953.3kbits/s speed=0.0228x elapsed=0:03:12.63    \nframe=  134 fps=0.7 q=42.1 size=     512KiB time=00:00:04.40 bitrate= 953.3kbits/s speed=0.0228x elapsed=0:03:13.15    \nframe=  134 fps=0.7 q=42.1 size=     512KiB time=00:00:04.40 bitrate= 953.3kbits/s speed=0.0227x elapsed=0:03:13.68    \nframe=  135 fps=0.7 q=41.7 size=     512KiB time=00:00:04.43 bitrate= 946.2kbits/s speed=0.0228x elapsed=0:03:14.19    \nframe=  135 fps=0.7 q=41.7 size=     512KiB time=00:00:04.43 bitrate= 946.2kbits/s speed=0.0228x elapsed=0:03:14.72    \nframe=  136 fps=0.7 q=36.4 size=     512KiB time=00:00:04.46 bitrate= 939.1kbits/s speed=0.0229x elapsed=0:03:15.24    \nframe=  136 fps=0.7 q=36.4 size=     512KiB time=00:00:04.46 bitrate= 939.1kbits/s speed=0.0228x elapsed=0:03:15.79    \nframe=  136 fps=0.7 q=36.4 size=     512KiB time=00:00:04.46 bitrate= 939.1kbits/s speed=0.0228x elapsed=0:03:16.31    \nframe=  137 fps=0.7 q=38.2 size=     512KiB time=00:00:04.50 bitrate= 932.1kbits/s speed=0.0229x elapsed=0:03:16.84    \nframe=  137 fps=0.7 q=38.2 size=     512KiB time=00:00:04.50 bitrate= 932.1kbits/s speed=0.0228x elapsed=0:03:17.37    \nframe=  137 fps=0.7 q=38.2 size=     512KiB time=00:00:04.50 bitrate= 932.1kbits/s speed=0.0227x elapsed=0:03:17.90    \nframe=  137 fps=0.7 q=38.2 size=     512KiB time=00:00:04.50 bitrate= 932.1kbits/s speed=0.0227x elapsed=0:03:18.41    \nframe=  137 fps=0.7 q=38.2 size=     512KiB time=00:00:04.50 bitrate= 932.1kbits/s speed=0.0226x elapsed=0:03:18.94    \nframe=  138 fps=0.7 q=38.6 size=     512KiB time=00:00:04.53 bitrate= 925.3kbits/s speed=0.0227x elapsed=0:03:19.49    \nframe=  139 fps=0.7 q=40.1 size=     512KiB time=00:00:04.56 bitrate= 918.5kbits/s speed=0.0228x elapsed=0:03:20.00    \nframe=  139 fps=0.7 q=40.1 size=     512KiB time=00:00:04.56 bitrate= 918.5kbits/s speed=0.0228x elapsed=0:03:20.52    \nframe=  139 fps=0.7 q=40.1 size=     512KiB time=00:00:04.56 bitrate= 918.5kbits/s speed=0.0227x elapsed=0:03:21.04    \nframe=  140 fps=0.7 q=41.3 size=     512KiB time=00:00:04.60 bitrate= 911.9kbits/s speed=0.0228x elapsed=0:03:21.58    \nframe=  140 fps=0.7 q=41.3 size=     512KiB time=00:00:04.60 bitrate= 911.9kbits/s speed=0.0228x elapsed=0:03:22.12    \nframe=  140 fps=0.7 q=41.3 size=     512KiB time=00:00:04.60 bitrate= 911.9kbits/s speed=0.0227x elapsed=0:03:22.64    \nframe=  140 fps=0.7 q=41.3 size=     512KiB time=00:00:04.60 bitrate= 911.9kbits/s speed=0.0226x elapsed=0:03:23.17    \nframe=  140 fps=0.7 q=41.3 size=     512KiB time=00:00:04.60 bitrate= 911.9kbits/s speed=0.0226x elapsed=0:03:23.68    \nframe=  140 fps=0.7 q=41.3 size=     512KiB time=00:00:04.60 bitrate= 911.9kbits/s speed=0.0225x elapsed=0:03:24.20    \nframe=  140 fps=0.7 q=41.3 size=     512KiB time=00:00:04.60 bitrate= 911.9kbits/s speed=0.0225x elapsed=0:03:24.72    \nframe=  141 fps=0.7 q=41.1 size=     512KiB time=00:00:04.63 bitrate= 905.3kbits/s speed=0.0226x elapsed=0:03:25.25    \nframe=  141 fps=0.7 q=41.1 size=     512KiB time=00:00:04.63 bitrate= 905.3kbits/s speed=0.0225x elapsed=0:03:25.78    \nframe=  142 fps=0.7 q=38.2 size=     512KiB time=00:00:04.66 bitrate= 898.9kbits/s speed=0.0226x elapsed=0:03:26.33    \nframe=  142 fps=0.7 q=38.2 size=     512KiB time=00:00:04.66 bitrate= 898.9kbits/s speed=0.0226x elapsed=0:03:26.86    \nframe=  142 fps=0.7 q=38.2 size=     512KiB time=00:00:04.66 bitrate= 898.9kbits/s speed=0.0225x elapsed=0:03:27.38    \nframe=  142 fps=0.7 q=38.2 size=     512KiB time=00:00:04.66 bitrate= 898.9kbits/s speed=0.0224x elapsed=0:03:27.90    \nframe=  143 fps=0.7 q=38.1 size=     512KiB time=00:00:04.70 bitrate= 892.5kbits/s speed=0.0226x elapsed=0:03:28.42    \nframe=  143 fps=0.7 q=38.1 size=     512KiB time=00:00:04.70 bitrate= 892.5kbits/s speed=0.0225x elapsed=0:03:28.93    \nframe=  143 fps=0.7 q=38.1 size=     512KiB time=00:00:04.70 bitrate= 892.5kbits/s speed=0.0224x elapsed=0:03:29.45    \nframe=  143 fps=0.7 q=38.1 size=     512KiB time=00:00:04.70 bitrate= 892.5kbits/s speed=0.0224x elapsed=0:03:29.98    \nframe=  144 fps=0.7 q=37.9 size=     512KiB time=00:00:04.73 bitrate= 886.2kbits/s speed=0.0225x elapsed=0:03:30.53    \nframe=  144 fps=0.7 q=37.9 size=     512KiB time=00:00:04.73 bitrate= 886.2kbits/s speed=0.0224x elapsed=0:03:31.06    \nframe=  144 fps=0.7 q=37.9 size=     512KiB time=00:00:04.73 bitrate= 886.2kbits/s speed=0.0224x elapsed=0:03:31.59    \nframe=  145 fps=0.7 q=38.8 size=     512KiB time=00:00:04.76 bitrate= 880.0kbits/s speed=0.0225x elapsed=0:03:32.11    \nframe=  145 fps=0.7 q=38.8 size=     512KiB time=00:00:04.76 bitrate= 880.0kbits/s speed=0.0224x elapsed=0:03:32.63    \nframe=  146 fps=0.7 q=39.1 size=     512KiB time=00:00:04.80 bitrate= 873.9kbits/s speed=0.0225x elapsed=0:03:33.14    \nframe=  146 fps=0.7 q=39.1 size=     512KiB time=00:00:04.80 bitrate= 873.9kbits/s speed=0.0225x elapsed=0:03:33.66    \nframe=  146 fps=0.7 q=39.1 size=     512KiB time=00:00:04.80 bitrate= 873.9kbits/s speed=0.0224x elapsed=0:03:34.19    \nframe=  147 fps=0.7 q=38.5 size=     512KiB time=00:00:04.83 bitrate= 867.9kbits/s speed=0.0225x elapsed=0:03:34.71    \nframe=  147 fps=0.7 q=38.5 size=     512KiB time=00:00:04.83 bitrate= 867.9kbits/s speed=0.0225x elapsed=0:03:35.23    \nframe=  148 fps=0.7 q=37.8 size=     512KiB time=00:00:04.86 bitrate= 861.9kbits/s speed=0.0226x elapsed=0:03:35.74    \nframe=  148 fps=0.7 q=37.8 size=     512KiB time=00:00:04.86 bitrate= 861.9kbits/s speed=0.0225x elapsed=0:03:36.27    \nframe=  149 fps=0.7 q=37.9 size=     512KiB time=00:00:04.90 bitrate= 856.1kbits/s speed=0.0226x elapsed=0:03:36.78    \n[mp4 @ 0000020b7679aa40] Starting second pass: moving the moov atom to the beginning of the file\n[out#0/mp4 @ 0000020b77233c80] video:597KiB audio:0KiB subtitle:0KiB other streams:0KiB global headers:2KiB muxing overhead: 0.853947%\nframe=  150 fps=0.7 q=40.0 Lsize=     602KiB time=00:00:04.93 bitrate= 999.7kbits/s speed=0.0227x elapsed=0:03:37.00    \nx265 [info]: frame I:      3, Avg QP:42.41  kb/s: 723.52  \nx265 [info]: frame P:     44, Avg QP:39.11  kb/s: 1547.24 \nx265 [info]: frame B:    103, Avg QP:41.65  kb/s: 740.91  \nx265 [info]: Weighted P-Frames: Y:0.0% UV:0.0%\n\nencoded 150 frames in 216.60s (0.69 fps), 977.09 kb/s, Avg QP:40.92\n",
  "seconds": 217.25897431373596,
  "probe_out": {}
}